<?xml version="1.0" standalone="no"?><!DOCTYPE svg PUBLIC "-//W3C//DTD SVG 1.1//EN" "http://www.w3.org/Graphics/SVG/1.1/DTD/svg11.dtd"><svg t="1548248128466" class="icon" style="" viewBox="0 0 1024 1024" version="1.1" xmlns="http://www.w3.org/2000/svg" p-id="1609" xmlns:xlink="http://www.w3.org/1999/xlink" width="200" height="200"><defs><style type="text/css"></style></defs><path d="M911.7696 594.3296a267.8784 267.8784 0 0 1-17.2032 21.2992l-368.64 368.64-368.64-368.64a267.8784 267.8784 0 0 1-17.2032-21.2992 271.9744 271.9744 0 0 1 384.6144-381.3376 271.9744 271.9744 0 0 1 384.6144 381.3376z" fill="#0000FF" p-id="1610"></path><path d="M872.448 555.008a267.8784 267.8784 0 0 1-17.2032 21.2992l-368.64 368.64-368.64-368.64a267.8784 267.8784 0 0 1-17.2032-21.2992 271.9744 271.9744 0 0 1 384.6144-381.3376 271.9744 271.9744 0 0 1 384.6144 381.3376z" fill="#FF0000" p-id="1611"></path></svg>