<?xml version="1.0" standalone="no"?><!DOCTYPE svg PUBLIC "-//W3C//DTD SVG 1.1//EN" "http://www.w3.org/Graphics/SVG/1.1/DTD/svg11.dtd"><svg t="1548291300042" class="icon" style="" viewBox="0 0 1024 1024" version="1.1" xmlns="http://www.w3.org/2000/svg" p-id="2706" xmlns:xlink="http://www.w3.org/1999/xlink" width="200" height="200"><defs><style type="text/css"></style></defs><path d="M656.77056 665.64608c-0.8704-14.85184-1.89952-29.90464-5.10976-44.35968-5.9456-26.68032-24.45056-38.15552-51.63008-35.9232-20.76544 1.71008-36.29952 11.34336-49.50016 26.5536-7.75552 8.92672-15.64032 17.91488-24.57472 25.5744-19.15392 16.39552-37.42464 16.24064-57.37472 0.8256-6.9184-5.34528-13.62816-11.0656-21.02528-15.65312-19.56992-12.1344-48.61824-8.4352-61.78432 7.36-15.76064 18.90048-16.45184 44.8256-1.90976 64.6848 10.35904 14.12992 24.64 23.01824 40.07936 30.35008 26.77504 12.69504 55.21664 19.48032 84.48512 22.83008 16.99456 1.94048 34.09664 2.94528 51.14496 4.35968 15.06176-0.56064 29.8816-1.0944 44.23168-6.43456 32.78208-12.20736 55.05664-45.21728 52.96768-80.16768zM431.5136 357.856c8.85504 6.59456 16.44672 14.88 24.79488 22.19008 6.6816 5.85472 13.15072 12.23552 20.63488 16.87552 16.8448 10.4896 35.33184 10.25536 53.84576 5.34016 11.96544-3.17952 20.32512-11.60448 23.90016-22.9568 9.5552-30.32832 11.30496-61.344-2.06464-90.72896-13.7152-30.10944-39.1552-45.13024-72.0448-46.89024-8.30848-0.45184-16.70528 0.92544-25.08032 1.46816-40.65408 3.08992-80.55424 10.10176-117.87904 27.53152-17.3952 8.13056-33.9008 17.70496-46.40512 32.88064-17.68064 21.49888-17.56544 50.29504 0.2048 69.89952 11.4048 12.57984 26.06976 14.14016 41.62048 12.78976 10.55488-0.92544 19.46496-5.68064 27.35488-12.49664 5.10464-4.39936 10.0544-8.98816 15.15392-13.39392 18.63424-16.07424 36.21504-17.19424 55.96416-2.5088z" fill="#FC982B" p-id="2707"></path><path d="M511.43552 20.48C239.58016 20.48 19.2 240.86016 19.2 512.71552s220.38016 492.24064 492.23552 492.24064c271.85408 0 492.23936-220.38528 492.23936-492.24064C1003.6736 240.86016 783.2896 20.48 511.43552 20.48z m121.76896 393.21088c-16.0256 1.08928-30.49472-11.64032-31.4496-27.6608-0.93312-16.15488 11.6416-30.27328 27.81952-31.20512 16.25472-0.95488 30.14528 11.50592 31.06944 27.85664 0.86656 15.94368-11.48032 29.92896-27.43936 31.00928z m18.784-97.44a23.83744 23.83744 0 0 1-5.73312 17.40928 23.85408 23.85408 0 0 1-16.40448 8.18688c-13.21984 0.92928-24.76032-8.96-25.76-22.08512-1.0048-12.99456 9.12-24.70016 22.26176-25.74976 12.992-1.0368 24.69248 9.10848 25.63584 22.23872zM628.8896 268.7104c0.8896 10.08512-7.26528 19.48544-17.42976 20.09344-10.06336 0.60672-18.86848-7.18848-19.5456-17.32992-0.6848-10.26432 6.8096-18.88512 17.0432-19.61856 10.14784-0.8 19.03616 6.72512 19.93216 16.85504z m-55.54432-45.19424c2.56-3.01952 6.21824-4.88064 10.16064-5.1712 8.35968-0.65408 15.33184 5.31072 15.90528 13.6512 0.59008 8.2304-5.62048 15.41504-13.77536 15.9104-7.87456 0.49536-15.00032-5.64992-15.71456-13.52064a14.72512 14.72512 0 0 1 3.424-10.86976z m-28.62976-17.17504a10.8224 10.8224 0 0 1 7.66464-3.64032c5.92512-0.31488 11.08992 4.08448 11.65312 9.9392 0.57472 5.85088-4.26496 11.58016-10.1952 12.08064-5.98016 0.50432-11.4048-4.2496-11.81312-10.33472a10.81856 10.81856 0 0 1 2.69056-8.0448zM251.72992 339.05536c-0.22016-23.3216 9.55008-42.67648 25.40544-59.17056 13.71008-14.26048 30.56512-24.06016 48.24448-32.44544 40.73856-19.31008 84.29056-27.3152 133.50016-31.92064 6.92352 0.06016 18.60352-0.384 30.20032 0.40064 40.32 2.73536 79.4752 33.09056 91.7632 71.47008 9.85984 30.8352 9.09952 62.20032 1.1968 93.24928-4.40064 17.26592-13.93024 31.616-29.96992 40.71168-20.65536 11.71328-42.87488 12.24064-65.2608 7.69024-19.36512-3.94496-34.46912-15.62496-48.28416-29.38496a249.73696 249.73696 0 0 0-26.34496-22.74688c-6.4704-4.85888-10.90048-3.81312-17.22112 1.5616a674.86336 674.86336 0 0 0-15.70432 13.60512c-14.8096 13.31328-32 19.84-52.02176 20.8704-46.08384 2.3744-75.14368-35.38048-75.50336-73.89056z m189.3696 421.0112c-23.15392-7.5456-45.344-17.35552-63.744-33.76-22.32064-19.9232-34.43584-44.72064-29.13024-74.9504 9.83936-55.86688 61.72032-73.37472 104.0832-55.2 12.29184 5.28384 22.85184 14.69312 34.00576 22.5088 8.64512 6.07104 12.2048 6.98112 20.43392 0.15104 8.35072-6.91968 16.0512-14.82496 23.09504-23.09504 18.20544-21.32096 40.03456-34.64064 68.81536-36.41984 36.78464-2.27456 65.51168 12.85504 77.28 50.69312 5.3568 17.24672 6.74688 34.9696 7.18976 51.6096 2.77504 64.85504-45.44512 112.54016-101.78816 115.53024-47.64672 2.5216-94.63168-2.21312-140.24064-17.06752z m215.09504 24.97408c-5.9456 0.13824-11.11552-4.98176-11.15008-11.05664-0.03968-2.94656 1.10464-5.78048 3.18464-7.8656s4.9152-3.23968 7.86048-3.20512c6.09024 0.05504 11.17184 5.21472 11.01952 11.22048-0.12544 5.71776-5.184 10.7712-10.91456 10.90688z m29.84576-17.59488c-7.90528-0.27008-14.42688-6.97984-14.4448-14.88-0.01536-8.25984 6.62528-14.81984 14.94528-14.7648 8.34688 0.04992 14.74944 6.624 14.6496 14.99648-0.10496 8.16256-7.09504 14.9184-15.15008 14.64832z m23.80032-35.09504c-10.24512 0.17536-18.75968-8.38656-18.67008-18.79168 0.06016-10.23488 8.2048-18.25664 18.52544-18.22336 10.18496 0.02816 18.49984 8.24832 18.54976 18.3552 0.03968 9.97504-8.36608 18.50496-18.40512 18.65984z m14.4896-43.39456c-13.1648 0.01536-24.08448-10.8352-24.12672-23.96544-0.02816-13.0496 10.94656-24.04992 24.03456-24.0896 13.13536-0.02944 23.96032 10.81472 23.98464 24.01536 0.00768 13.26464-10.66752 24.00896-23.89248 24.03968z m19.74016-69.57568a29.32224 29.32224 0 0 1-20.8448 8.66944c-16.2496 0.04992-29.6896-13.3248-29.62048-29.45536 0.0832-15.98976 13.13536-29.0816 29.2352-29.3248 16.2496-0.256 29.64992 12.90496 29.74464 29.2032a29.32352 29.32352 0 0 1-8.51456 20.90752z" fill="#FC982B" p-id="2708"></path></svg>