<?xml version="1.0" standalone="no"?><!DOCTYPE svg PUBLIC "-//W3C//DTD SVG 1.1//EN" "http://www.w3.org/Graphics/SVG/1.1/DTD/svg11.dtd"><svg t="1547712888963" class="icon" style="" viewBox="0 0 1024 1024" version="1.1" xmlns="http://www.w3.org/2000/svg" p-id="4529" xmlns:xlink="http://www.w3.org/1999/xlink" width="20" height="20"><defs><style type="text/css"></style></defs><path d="M993.28 855.808l-229.888-229.824c-5.504-5.504-12.288-8.512-18.688-12.352 37.632-60.992 59.776-132.544 59.776-209.344 0-220.544-179.456-400-400-400s-400 179.456-400 400c0 220.544 179.456 400 400 400 77.44 0 149.632-22.528 210.944-60.8 3.904 6.208 6.72 12.864 12.16 18.304l229.888 229.824c18.752 18.688 43.328 28.096 67.904 28.096s49.152-9.344 67.904-28.096C1030.72 954.112 1030.72 893.312 993.28 855.808zM100.48 404.288c0-167.616 136.384-304 304-304s304 136.384 304 304c0 167.68-136.384 304-304 304S100.48 571.968 100.48 404.288z" p-id="4530"></path></svg>