<?xml version="1.0" standalone="no"?><!DOCTYPE svg PUBLIC "-//W3C//DTD SVG 1.1//EN" "http://www.w3.org/Graphics/SVG/1.1/DTD/svg11.dtd"><svg t="1547727728453" class="icon" fill="#cccccc" style="" viewBox="0 0 1024 1024" version="1.1" xmlns="http://www.w3.org/2000/svg" p-id="4165" xmlns:xlink="http://www.w3.org/1999/xlink" width="24" height="24"><defs><style type="text/css"></style></defs><path d="M668.930145 369.380792c10.174734 0 20.221554 0.76134 30.216186 1.87879-27.148313-126.45711-162.332179-220.388433-316.649824-220.388433-172.506912 0-313.832661 117.576859-313.832661 266.89463 0 86.191034 47.015803 156.980287 125.594463 211.861222l-31.385825 94.411253 109.686145-55.007825c39.276539 7.762801 70.762647 15.731286 109.937878 15.731287 9.844206 0 19.61371-0.457418 29.30749-1.218758-6.141884-21.008476-9.69378-42.980907-9.69378-65.766866 0.001023-137.110751 117.730355-248.3953 266.819928-248.3953zM500.175697 284.307208c23.622 0 39.278585 15.552208 39.278585 39.148625 0 23.547299-15.656585 39.276539-39.278585 39.276538-23.518646 0-47.115064-15.72924-47.115064-39.276538 0-23.596418 23.596418-39.148625 47.115064-39.148625zm-219.624023 78.425163c-23.520693 0-47.26856-15.72924-47.26856-39.276538 0-23.596418 23.746844-39.148625 47.26856-39.148625 23.520693 0 39.175231 15.552208 39.175231 39.148625 0 23.547299-15.654538 39.276539-39.175231 39.276538zM955.335131 613.997022c0-125.467573-125.542274-227.742934-266.565125-227.742934-149.315724 0-266.918165 102.276385-266.918166 227.742934 0 125.69577 117.602442 227.746004 266.918166 227.746004 31.260981 0 62.797231-7.890714 94.183056-15.757892l86.064144 47.143717-23.596417-78.427211c62.999846-47.269583 109.914342-109.938901 109.914342-180.704618zm-353.085664-39.250956c-15.627932 0-31.40936-15.552208-31.409361-31.411407 0-15.627932 15.781428-31.385824 31.409361-31.385824 23.723308 0 39.278585 15.757892 39.278585 31.385824 0 15.859199-15.555278 31.411407-39.278585 31.411407zm172.610266 0c-15.528672 0-31.18321-15.552208-31.18321-31.411407 0-15.627932 15.653515-31.385824 31.18321-31.385824 23.520693 0 39.276539 15.757892 39.276539 31.385824 0 15.859199-15.755846 31.411407-39.276539 31.411407z" p-id="4166"></path></svg>