<?xml version="1.0" standalone="no"?><!DOCTYPE svg PUBLIC "-//W3C//DTD SVG 1.1//EN" "http://www.w3.org/Graphics/SVG/1.1/DTD/svg11.dtd"><svg t="1548158159233" class="icon" style="" viewBox="0 0 1024 1024" version="1.1" xmlns="http://www.w3.org/2000/svg" p-id="7289" xmlns:xlink="http://www.w3.org/1999/xlink" width="26" height="26"><defs><style type="text/css"></style></defs><path d="M826.32704 479.25248l-307.2-223.41632c-7.18848-5.24288-16.91648-5.24288-24.10496 0l-307.2 223.41632c-9.13408 6.63552-11.1616 19.456-4.5056 28.59008 6.656 9.15456 19.43552 11.14112 28.61056 4.52608l40.42752-29.40928 0 280.94464c0 11.32544 9.17504 20.48 20.48 20.48l165.376 0c11.30496 0 20.48-9.15456 20.48-20.48l0-192.36864 96.768 0 0 192.36864c0 11.32544 9.17504 20.48 20.48 20.48l165.376 0c11.30496 0 20.48-9.15456 20.48-20.48L761.79456 482.97984l40.42752 29.40928c3.64544 2.64192 7.86432 3.91168 12.02176 3.91168 6.32832 0 12.57472-2.92864 16.5888-8.43776C837.50912 498.72896 835.46112 485.90848 826.32704 479.25248zM720.83456 743.44448l-124.416 0 0-192.36864c0-11.32544-9.17504-20.48-20.48-20.48l-137.728 0c-11.30496 0-20.48 9.15456-20.48 20.48l0 192.36864-124.416 0L293.31456 453.18144l213.77024-155.46368 213.77024 155.46368L720.85504 743.44448z" p-id="7290"></path></svg>